<svg width="140" height="140" viewBox="0 0 140 140" fill="none" xmlns="http://www.w3.org/2000/svg">
<path fill-rule="evenodd" clip-rule="evenodd" d="M5 2.5C5 3.88071 3.88071 5 2.5 5C1.11929 5 0 3.88071 0 2.5C0 1.11929 1.11929 0 2.5 0C3.88071 0 5 1.11929 5 2.5ZM17.5 5C18.8807 5 20 3.88071 20 2.5C20 1.11929 18.8807 0 17.5 0C16.1193 0 15 1.11929 15 2.5C15 3.88071 16.1193 5 17.5 5ZM35 2.5C35 3.88071 33.8807 5 32.5 5C31.1193 5 30 3.88071 30 2.5C30 1.11929 31.1193 0 32.5 0C33.8807 0 35 1.11929 35 2.5ZM47.5 5C48.8807 5 50 3.88071 50 2.5C50 1.11929 48.8807 0 47.5 0C46.1193 0 45 1.11929 45 2.5C45 3.88071 46.1193 5 47.5 5ZM65 2.5C65 3.88071 63.8807 5 62.5 5C61.1193 5 60 3.88071 60 2.5C60 1.11929 61.1193 0 62.5 0C63.8807 0 65 1.11929 65 2.5ZM77.5 5C78.8807 5 80 3.88071 80 2.5C80 1.11929 78.8807 0 77.5 0C76.1193 0 75 1.11929 75 2.5C75 3.88071 76.1193 5 77.5 5ZM95 2.5C95 3.88071 93.8807 5 92.5 5C91.1193 5 90 3.88071 90 2.5C90 1.11929 91.1193 0 92.5 0C93.8807 0 95 1.11929 95 2.5ZM107.5 5C108.881 5 110 3.88071 110 2.5C110 1.11929 108.881 0 107.5 0C106.119 0 105 1.11929 105 2.5C105 3.88071 106.119 5 107.5 5ZM125 2.5C125 3.88071 123.881 5 122.5 5C121.119 5 120 3.88071 120 2.5C120 1.11929 121.119 0 122.5 0C123.881 0 125 1.11929 125 2.5ZM140 2.5C140 3.88071 138.881 5 137.5 5C136.119 5 135 3.88071 135 2.5C135 1.11929 136.119 0 137.5 0C138.881 0 140 1.11929 140 2.5ZM137.5 20C138.881 20 140 18.8807 140 17.5C140 16.1193 138.881 15 137.5 15C136.119 15 135 16.1193 135 17.5C135 18.8807 136.119 20 137.5 20ZM125 17.5C125 18.8807 123.881 20 122.5 20C121.119 20 120 18.8807 120 17.5C120 16.1193 121.119 15 122.5 15C123.881 15 125 16.1193 125 17.5ZM107.5 20C108.881 20 110 18.8807 110 17.5C110 16.1193 108.881 15 107.5 15C106.119 15 105 16.1193 105 17.5C105 18.8807 106.119 20 107.5 20ZM95 17.5C95 18.8807 93.8807 20 92.5 20C91.1193 20 90 18.8807 90 17.5C90 16.1193 91.1193 15 92.5 15C93.8807 15 95 16.1193 95 17.5ZM77.5 20C78.8807 20 80 18.8807 80 17.5C80 16.1193 78.8807 15 77.5 15C76.1193 15 75 16.1193 75 17.5C75 18.8807 76.1193 20 77.5 20ZM65 17.5C65 18.8807 63.8807 20 62.5 20C61.1193 20 60 18.8807 60 17.5C60 16.1193 61.1193 15 62.5 15C63.8807 15 65 16.1193 65 17.5ZM47.5 20C48.8807 20 50 18.8807 50 17.5C50 16.1193 48.8807 15 47.5 15C46.1193 15 45 16.1193 45 17.5C45 18.8807 46.1193 20 47.5 20ZM35 17.5C35 18.8807 33.8807 20 32.5 20C31.1193 20 30 18.8807 30 17.5C30 16.1193 31.1193 15 32.5 15C33.8807 15 35 16.1193 35 17.5ZM17.5 20C18.8807 20 20 18.8807 20 17.5C20 16.1193 18.8807 15 17.5 15C16.1193 15 15 16.1193 15 17.5C15 18.8807 16.1193 20 17.5 20ZM5 17.5C5 18.8807 3.88071 20 2.5 20C1.11929 20 0 18.8807 0 17.5C0 16.1193 1.11929 15 2.5 15C3.88071 15 5 16.1193 5 17.5ZM137.5 35C138.881 35 140 33.8807 140 32.5C140 31.1193 138.881 30 137.5 30C136.119 30 135 31.1193 135 32.5C135 33.8807 136.119 35 137.5 35ZM125 32.5C125 33.8807 123.881 35 122.5 35C121.119 35 120 33.8807 120 32.5C120 31.1193 121.119 30 122.5 30C123.881 30 125 31.1193 125 32.5ZM107.5 35C108.881 35 110 33.8807 110 32.5C110 31.1193 108.881 30 107.5 30C106.119 30 105 31.1193 105 32.5C105 33.8807 106.119 35 107.5 35ZM95 32.5C95 33.8807 93.8807 35 92.5 35C91.1193 35 90 33.8807 90 32.5C90 31.1193 91.1193 30 92.5 30C93.8807 30 95 31.1193 95 32.5ZM77.5 35C78.8807 35 80 33.8807 80 32.5C80 31.1193 78.8807 30 77.5 30C76.1193 30 75 31.1193 75 32.5C75 33.8807 76.1193 35 77.5 35ZM65 32.5C65 33.8807 63.8807 35 62.5 35C61.1193 35 60 33.8807 60 32.5C60 31.1193 61.1193 30 62.5 30C63.8807 30 65 31.1193 65 32.5ZM47.5 35C48.8807 35 50 33.8807 50 32.5C50 31.1193 48.8807 30 47.5 30C46.1193 30 45 31.1193 45 32.5C45 33.8807 46.1193 35 47.5 35ZM35 32.5C35 33.8807 33.8807 35 32.5 35C31.1193 35 30 33.8807 30 32.5C30 31.1193 31.1193 30 32.5 30C33.8807 30 35 31.1193 35 32.5ZM17.5 35C18.8807 35 20 33.8807 20 32.5C20 31.1193 18.8807 30 17.5 30C16.1193 30 15 31.1193 15 32.5C15 33.8807 16.1193 35 17.5 35ZM5 32.5C5 33.8807 3.88071 35 2.5 35C1.11929 35 0 33.8807 0 32.5C0 31.1193 1.11929 30 2.5 30C3.88071 30 5 31.1193 5 32.5ZM137.5 50C138.881 50 140 48.8807 140 47.5C140 46.1193 138.881 45 137.5 45C136.119 45 135 46.1193 135 47.5C135 48.8807 136.119 50 137.5 50ZM125 47.5C125 48.8807 123.881 50 122.5 50C121.119 50 120 48.8807 120 47.5C120 46.1193 121.119 45 122.5 45C123.881 45 125 46.1193 125 47.5ZM107.5 50C108.881 50 110 48.8807 110 47.5C110 46.1193 108.881 45 107.5 45C106.119 45 105 46.1193 105 47.5C105 48.8807 106.119 50 107.5 50ZM95 47.5C95 48.8807 93.8807 50 92.5 50C91.1193 50 90 48.8807 90 47.5C90 46.1193 91.1193 45 92.5 45C93.8807 45 95 46.1193 95 47.5ZM77.5 50C78.8807 50 80 48.8807 80 47.5C80 46.1193 78.8807 45 77.5 45C76.1193 45 75 46.1193 75 47.5C75 48.8807 76.1193 50 77.5 50ZM65 47.5C65 48.8807 63.8807 50 62.5 50C61.1193 50 60 48.8807 60 47.5C60 46.1193 61.1193 45 62.5 45C63.8807 45 65 46.1193 65 47.5ZM47.5 50C48.8807 50 50 48.8807 50 47.5C50 46.1193 48.8807 45 47.5 45C46.1193 45 45 46.1193 45 47.5C45 48.8807 46.1193 50 47.5 50ZM35 47.5C35 48.8807 33.8807 50 32.5 50C31.1193 50 30 48.8807 30 47.5C30 46.1193 31.1193 45 32.5 45C33.8807 45 35 46.1193 35 47.5ZM17.5 50C18.8807 50 20 48.8807 20 47.5C20 46.1193 18.8807 45 17.5 45C16.1193 45 15 46.1193 15 47.5C15 48.8807 16.1193 50 17.5 50ZM5 47.5C5 48.8807 3.88071 50 2.5 50C1.11929 50 0 48.8807 0 47.5C0 46.1193 1.11929 45 2.5 45C3.88071 45 5 46.1193 5 47.5ZM137.5 65C138.881 65 140 63.8807 140 62.5C140 61.1193 138.881 60 137.5 60C136.119 60 135 61.1193 135 62.5C135 63.8807 136.119 65 137.5 65ZM125 62.5C125 63.8807 123.881 65 122.5 65C121.119 65 120 63.8807 120 62.5C120 61.1193 121.119 60 122.5 60C123.881 60 125 61.1193 125 62.5ZM107.5 65C108.881 65 110 63.8807 110 62.5C110 61.1193 108.881 60 107.5 60C106.119 60 105 61.1193 105 62.5C105 63.8807 106.119 65 107.5 65ZM95 62.5C95 63.8807 93.8807 65 92.5 65C91.1193 65 90 63.8807 90 62.5C90 61.1193 91.1193 60 92.5 60C93.8807 60 95 61.1193 95 62.5ZM77.5 65C78.8807 65 80 63.8807 80 62.5C80 61.1193 78.8807 60 77.5 60C76.1193 60 75 61.1193 75 62.5C75 63.8807 76.1193 65 77.5 65ZM65 62.5C65 63.8807 63.8807 65 62.5 65C61.1193 65 60 63.8807 60 62.5C60 61.1193 61.1193 60 62.5 60C63.8807 60 65 61.1193 65 62.5ZM47.5 65C48.8807 65 50 63.8807 50 62.5C50 61.1193 48.8807 60 47.5 60C46.1193 60 45 61.1193 45 62.5C45 63.8807 46.1193 65 47.5 65ZM35 62.5C35 63.8807 33.8807 65 32.5 65C31.1193 65 30 63.8807 30 62.5C30 61.1193 31.1193 60 32.5 60C33.8807 60 35 61.1193 35 62.5ZM17.5 65C18.8807 65 20 63.8807 20 62.5C20 61.1193 18.8807 60 17.5 60C16.1193 60 15 61.1193 15 62.5C15 63.8807 16.1193 65 17.5 65ZM5 62.5C5 63.8807 3.88071 65 2.5 65C1.11929 65 0 63.8807 0 62.5C0 61.1193 1.11929 60 2.5 60C3.88071 60 5 61.1193 5 62.5ZM137.5 80C138.881 80 140 78.8807 140 77.5C140 76.1193 138.881 75 137.5 75C136.119 75 135 76.1193 135 77.5C135 78.8807 136.119 80 137.5 80ZM125 77.5C125 78.8807 123.881 80 122.5 80C121.119 80 120 78.8807 120 77.5C120 76.1193 121.119 75 122.5 75C123.881 75 125 76.1193 125 77.5ZM107.5 80C108.881 80 110 78.8807 110 77.5C110 76.1193 108.881 75 107.5 75C106.119 75 105 76.1193 105 77.5C105 78.8807 106.119 80 107.5 80ZM95 77.5C95 78.8807 93.8807 80 92.5 80C91.1193 80 90 78.8807 90 77.5C90 76.1193 91.1193 75 92.5 75C93.8807 75 95 76.1193 95 77.5ZM77.5 80C78.8807 80 80 78.8807 80 77.5C80 76.1193 78.8807 75 77.5 75C76.1193 75 75 76.1193 75 77.5C75 78.8807 76.1193 80 77.5 80ZM65 77.5C65 78.8807 63.8807 80 62.5 80C61.1193 80 60 78.8807 60 77.5C60 76.1193 61.1193 75 62.5 75C63.8807 75 65 76.1193 65 77.5ZM47.5 80C48.8807 80 50 78.8807 50 77.5C50 76.1193 48.8807 75 47.5 75C46.1193 75 45 76.1193 45 77.5C45 78.8807 46.1193 80 47.5 80ZM35 77.5C35 78.8807 33.8807 80 32.5 80C31.1193 80 30 78.8807 30 77.5C30 76.1193 31.1193 75 32.5 75C33.8807 75 35 76.1193 35 77.5ZM17.5 80C18.8807 80 20 78.8807 20 77.5C20 76.1193 18.8807 75 17.5 75C16.1193 75 15 76.1193 15 77.5C15 78.8807 16.1193 80 17.5 80ZM5 77.5C5 78.8807 3.88071 80 2.5 80C1.11929 80 0 78.8807 0 77.5C0 76.1193 1.11929 75 2.5 75C3.88071 75 5 76.1193 5 77.5ZM137.5 95C138.881 95 140 93.8807 140 92.5C140 91.1193 138.881 90 137.5 90C136.119 90 135 91.1193 135 92.5C135 93.8807 136.119 95 137.5 95ZM125 92.5C125 93.8807 123.881 95 122.5 95C121.119 95 120 93.8807 120 92.5C120 91.1193 121.119 90 122.5 90C123.881 90 125 91.1193 125 92.5ZM107.5 95C108.881 95 110 93.8807 110 92.5C110 91.1193 108.881 90 107.5 90C106.119 90 105 91.1193 105 92.5C105 93.8807 106.119 95 107.5 95ZM95 92.5C95 93.8807 93.8807 95 92.5 95C91.1193 95 90 93.8807 90 92.5C90 91.1193 91.1193 90 92.5 90C93.8807 90 95 91.1193 95 92.5ZM77.5 95C78.8807 95 80 93.8807 80 92.5C80 91.1193 78.8807 90 77.5 90C76.1193 90 75 91.1193 75 92.5C75 93.8807 76.1193 95 77.5 95ZM65 92.5C65 93.8807 63.8807 95 62.5 95C61.1193 95 60 93.8807 60 92.5C60 91.1193 61.1193 90 62.5 90C63.8807 90 65 91.1193 65 92.5ZM47.5 95C48.8807 95 50 93.8807 50 92.5C50 91.1193 48.8807 90 47.5 90C46.1193 90 45 91.1193 45 92.5C45 93.8807 46.1193 95 47.5 95ZM35 92.5C35 93.8807 33.8807 95 32.5 95C31.1193 95 30 93.8807 30 92.5C30 91.1193 31.1193 90 32.5 90C33.8807 90 35 91.1193 35 92.5ZM17.5 95C18.8807 95 20 93.8807 20 92.5C20 91.1193 18.8807 90 17.5 90C16.1193 90 15 91.1193 15 92.5C15 93.8807 16.1193 95 17.5 95ZM5 92.5C5 93.8807 3.88071 95 2.5 95C1.11929 95 0 93.8807 0 92.5C0 91.1193 1.11929 90 2.5 90C3.88071 90 5 91.1193 5 92.5ZM137.5 110C138.881 110 140 108.881 140 107.5C140 106.119 138.881 105 137.5 105C136.119 105 135 106.119 135 107.5C135 108.881 136.119 110 137.5 110ZM125 107.5C125 108.881 123.881 110 122.5 110C121.119 110 120 108.881 120 107.5C120 106.119 121.119 105 122.5 105C123.881 105 125 106.119 125 107.5ZM107.5 110C108.881 110 110 108.881 110 107.5C110 106.119 108.881 105 107.5 105C106.119 105 105 106.119 105 107.5C105 108.881 106.119 110 107.5 110ZM95 107.5C95 108.881 93.8807 110 92.5 110C91.1193 110 90 108.881 90 107.5C90 106.119 91.1193 105 92.5 105C93.8807 105 95 106.119 95 107.5ZM77.5 110C78.8807 110 80 108.881 80 107.5C80 106.119 78.8807 105 77.5 105C76.1193 105 75 106.119 75 107.5C75 108.881 76.1193 110 77.5 110ZM65 107.5C65 108.881 63.8807 110 62.5 110C61.1193 110 60 108.881 60 107.5C60 106.119 61.1193 105 62.5 105C63.8807 105 65 106.119 65 107.5ZM47.5 110C48.8807 110 50 108.881 50 107.5C50 106.119 48.8807 105 47.5 105C46.1193 105 45 106.119 45 107.5C45 108.881 46.1193 110 47.5 110ZM35 107.5C35 108.881 33.8807 110 32.5 110C31.1193 110 30 108.881 30 107.5C30 106.119 31.1193 105 32.5 105C33.8807 105 35 106.119 35 107.5ZM17.5 110C18.8807 110 20 108.881 20 107.5C20 106.119 18.8807 105 17.5 105C16.1193 105 15 106.119 15 107.5C15 108.881 16.1193 110 17.5 110ZM5 107.5C5 108.881 3.88071 110 2.5 110C1.11929 110 0 108.881 0 107.5C0 106.119 1.11929 105 2.5 105C3.88071 105 5 106.119 5 107.5ZM137.5 125C138.881 125 140 123.881 140 122.5C140 121.119 138.881 120 137.5 120C136.119 120 135 121.119 135 122.5C135 123.881 136.119 125 137.5 125ZM125 122.5C125 123.881 123.881 125 122.5 125C121.119 125 120 123.881 120 122.5C120 121.119 121.119 120 122.5 120C123.881 120 125 121.119 125 122.5ZM107.5 125C108.881 125 110 123.881 110 122.5C110 121.119 108.881 120 107.5 120C106.119 120 105 121.119 105 122.5C105 123.881 106.119 125 107.5 125ZM95 122.5C95 123.881 93.8807 125 92.5 125C91.1193 125 90 123.881 90 122.5C90 121.119 91.1193 120 92.5 120C93.8807 120 95 121.119 95 122.5ZM77.5 125C78.8807 125 80 123.881 80 122.5C80 121.119 78.8807 120 77.5 120C76.1193 120 75 121.119 75 122.5C75 123.881 76.1193 125 77.5 125ZM65 122.5C65 123.881 63.8807 125 62.5 125C61.1193 125 60 123.881 60 122.5C60 121.119 61.1193 120 62.5 120C63.8807 120 65 121.119 65 122.5ZM47.5 125C48.8807 125 50 123.881 50 122.5C50 121.119 48.8807 120 47.5 120C46.1193 120 45 121.119 45 122.5C45 123.881 46.1193 125 47.5 125ZM35 122.5C35 123.881 33.8807 125 32.5 125C31.1193 125 30 123.881 30 122.5C30 121.119 31.1193 120 32.5 120C33.8807 120 35 121.119 35 122.5ZM17.5 125C18.8807 125 20 123.881 20 122.5C20 121.119 18.8807 120 17.5 120C16.1193 120 15 121.119 15 122.5C15 123.881 16.1193 125 17.5 125ZM5 122.5C5 123.881 3.88071 125 2.5 125C1.11929 125 0 123.881 0 122.5C0 121.119 1.11929 120 2.5 120C3.88071 120 5 121.119 5 122.5ZM137.5 140C138.881 140 140 138.881 140 137.5C140 136.119 138.881 135 137.5 135C136.119 135 135 136.119 135 137.5C135 138.881 136.119 140 137.5 140ZM125 137.5C125 138.881 123.881 140 122.5 140C121.119 140 120 138.881 120 137.5C120 136.119 121.119 135 122.5 135C123.881 135 125 136.119 125 137.5ZM107.5 140C108.881 140 110 138.881 110 137.5C110 136.119 108.881 135 107.5 135C106.119 135 105 136.119 105 137.5C105 138.881 106.119 140 107.5 140ZM95 137.5C95 138.881 93.8807 140 92.5 140C91.1193 140 90 138.881 90 137.5C90 136.119 91.1193 135 92.5 135C93.8807 135 95 136.119 95 137.5ZM77.5 140C78.8807 140 80 138.881 80 137.5C80 136.119 78.8807 135 77.5 135C76.1193 135 75 136.119 75 137.5C75 138.881 76.1193 140 77.5 140ZM65 137.5C65 138.881 63.8807 140 62.5 140C61.1193 140 60 138.881 60 137.5C60 136.119 61.1193 135 62.5 135C63.8807 135 65 136.119 65 137.5ZM47.5 140C48.8807 140 50 138.881 50 137.5C50 136.119 48.8807 135 47.5 135C46.1193 135 45 136.119 45 137.5C45 138.881 46.1193 140 47.5 140ZM35 137.5C35 138.881 33.8807 140 32.5 140C31.1193 140 30 138.881 30 137.5C30 136.119 31.1193 135 32.5 135C33.8807 135 35 136.119 35 137.5ZM17.5 140C18.8807 140 20 138.881 20 137.5C20 136.119 18.8807 135 17.5 135C16.1193 135 15 136.119 15 137.5C15 138.881 16.1193 140 17.5 140ZM5 137.5C5 138.881 3.88071 140 2.5 140C1.11929 140 0 138.881 0 137.5C0 136.119 1.11929 135 2.5 135C3.88071 135 5 136.119 5 137.5Z" fill="#1890FF"/>
</svg>
